<mxfile host="app.diagrams.net" modified="2020-03-31T11:46:50.978Z" agent="5.0 (Windows)" etag="Lia9jhT1f6p83d0P9MUp" version="12.9.5" type="github">
  <diagram id="ADpwd-EAghOWK5d6LEkD" name="Page-1">
    <mxGraphModel dx="920" dy="482" grid="1" gridSize="10" guides="1" tooltips="1" connect="1" arrows="1" fold="1" page="1" pageScale="1" pageWidth="850" pageHeight="1100" math="0" shadow="0">
      <root>
        <mxCell id="0" />
        <mxCell id="1" parent="0" />
        <mxCell id="HIxRMxd3DUjgqn-PF_iX-24" style="edgeStyle=orthogonalEdgeStyle;rounded=0;orthogonalLoop=1;jettySize=auto;html=1;exitX=0.5;exitY=1;exitDx=0;exitDy=0;" edge="1" parent="1" source="HIxRMxd3DUjgqn-PF_iX-1" target="HIxRMxd3DUjgqn-PF_iX-9">
          <mxGeometry relative="1" as="geometry" />
        </mxCell>
        <mxCell id="HIxRMxd3DUjgqn-PF_iX-33" style="edgeStyle=orthogonalEdgeStyle;rounded=0;orthogonalLoop=1;jettySize=auto;html=1;" edge="1" parent="1" source="HIxRMxd3DUjgqn-PF_iX-1">
          <mxGeometry relative="1" as="geometry">
            <mxPoint x="620" y="20" as="targetPoint" />
            <Array as="points">
              <mxPoint x="440" y="20" />
              <mxPoint x="610" y="20" />
            </Array>
          </mxGeometry>
        </mxCell>
        <mxCell id="HIxRMxd3DUjgqn-PF_iX-41" style="edgeStyle=orthogonalEdgeStyle;rounded=0;orthogonalLoop=1;jettySize=auto;html=1;" edge="1" parent="1" source="HIxRMxd3DUjgqn-PF_iX-1" target="HIxRMxd3DUjgqn-PF_iX-6">
          <mxGeometry relative="1" as="geometry">
            <Array as="points">
              <mxPoint x="400" y="120" />
              <mxPoint x="240" y="120" />
            </Array>
          </mxGeometry>
        </mxCell>
        <mxCell id="HIxRMxd3DUjgqn-PF_iX-1" value="Main Menu" style="rounded=0;whiteSpace=wrap;html=1;" vertex="1" parent="1">
          <mxGeometry x="380" y="40" width="120" height="60" as="geometry" />
        </mxCell>
        <mxCell id="HIxRMxd3DUjgqn-PF_iX-32" style="edgeStyle=orthogonalEdgeStyle;rounded=0;orthogonalLoop=1;jettySize=auto;html=1;entryX=0;entryY=0.25;entryDx=0;entryDy=0;" edge="1" parent="1" source="HIxRMxd3DUjgqn-PF_iX-2" target="HIxRMxd3DUjgqn-PF_iX-1">
          <mxGeometry relative="1" as="geometry">
            <Array as="points">
              <mxPoint x="315" y="40" />
              <mxPoint x="315" y="55" />
            </Array>
          </mxGeometry>
        </mxCell>
        <mxCell id="HIxRMxd3DUjgqn-PF_iX-2" value="Start" style="rounded=0;whiteSpace=wrap;html=1;" vertex="1" parent="1">
          <mxGeometry x="130" y="10" width="120" height="60" as="geometry" />
        </mxCell>
        <mxCell id="HIxRMxd3DUjgqn-PF_iX-4" value="Stop" style="rounded=0;whiteSpace=wrap;html=1;" vertex="1" parent="1">
          <mxGeometry x="620" y="10" width="120" height="60" as="geometry" />
        </mxCell>
        <mxCell id="HIxRMxd3DUjgqn-PF_iX-26" style="edgeStyle=orthogonalEdgeStyle;rounded=0;orthogonalLoop=1;jettySize=auto;html=1;exitX=0.5;exitY=1;exitDx=0;exitDy=0;entryX=0.5;entryY=0;entryDx=0;entryDy=0;" edge="1" parent="1" source="HIxRMxd3DUjgqn-PF_iX-5" target="HIxRMxd3DUjgqn-PF_iX-12">
          <mxGeometry relative="1" as="geometry" />
        </mxCell>
        <mxCell id="HIxRMxd3DUjgqn-PF_iX-5" value="Game Settings" style="rounded=0;whiteSpace=wrap;html=1;" vertex="1" parent="1">
          <mxGeometry x="380" y="250" width="120" height="60" as="geometry" />
        </mxCell>
        <mxCell id="HIxRMxd3DUjgqn-PF_iX-6" value="Credits" style="rounded=0;whiteSpace=wrap;html=1;" vertex="1" parent="1">
          <mxGeometry x="180" y="140" width="120" height="60" as="geometry" />
        </mxCell>
        <mxCell id="HIxRMxd3DUjgqn-PF_iX-40" style="edgeStyle=orthogonalEdgeStyle;rounded=0;orthogonalLoop=1;jettySize=auto;html=1;entryX=1;entryY=0.5;entryDx=0;entryDy=0;" edge="1" parent="1" source="HIxRMxd3DUjgqn-PF_iX-7" target="HIxRMxd3DUjgqn-PF_iX-1">
          <mxGeometry relative="1" as="geometry" />
        </mxCell>
        <mxCell id="HIxRMxd3DUjgqn-PF_iX-7" value="High Scores" style="rounded=0;whiteSpace=wrap;html=1;" vertex="1" parent="1">
          <mxGeometry x="580" y="170" width="120" height="60" as="geometry" />
        </mxCell>
        <mxCell id="HIxRMxd3DUjgqn-PF_iX-25" style="edgeStyle=orthogonalEdgeStyle;rounded=0;orthogonalLoop=1;jettySize=auto;html=1;exitX=0.5;exitY=1;exitDx=0;exitDy=0;" edge="1" parent="1" source="HIxRMxd3DUjgqn-PF_iX-9" target="HIxRMxd3DUjgqn-PF_iX-5">
          <mxGeometry relative="1" as="geometry" />
        </mxCell>
        <mxCell id="HIxRMxd3DUjgqn-PF_iX-9" value="Play" style="rounded=0;whiteSpace=wrap;html=1;" vertex="1" parent="1">
          <mxGeometry x="380" y="140" width="120" height="60" as="geometry" />
        </mxCell>
        <mxCell id="HIxRMxd3DUjgqn-PF_iX-27" style="edgeStyle=orthogonalEdgeStyle;rounded=0;orthogonalLoop=1;jettySize=auto;html=1;exitX=0.5;exitY=1;exitDx=0;exitDy=0;entryX=0.5;entryY=0;entryDx=0;entryDy=0;" edge="1" parent="1" source="HIxRMxd3DUjgqn-PF_iX-12" target="HIxRMxd3DUjgqn-PF_iX-14">
          <mxGeometry relative="1" as="geometry" />
        </mxCell>
        <mxCell id="HIxRMxd3DUjgqn-PF_iX-12" value="Game Board Setup" style="rounded=0;whiteSpace=wrap;html=1;" vertex="1" parent="1">
          <mxGeometry x="380" y="350" width="120" height="60" as="geometry" />
        </mxCell>
        <mxCell id="HIxRMxd3DUjgqn-PF_iX-28" style="edgeStyle=orthogonalEdgeStyle;rounded=0;orthogonalLoop=1;jettySize=auto;html=1;exitX=0.5;exitY=1;exitDx=0;exitDy=0;entryX=0.5;entryY=0;entryDx=0;entryDy=0;" edge="1" parent="1" source="HIxRMxd3DUjgqn-PF_iX-14" target="HIxRMxd3DUjgqn-PF_iX-16">
          <mxGeometry relative="1" as="geometry" />
        </mxCell>
        <mxCell id="HIxRMxd3DUjgqn-PF_iX-31" style="edgeStyle=orthogonalEdgeStyle;rounded=0;orthogonalLoop=1;jettySize=auto;html=1;entryX=0.5;entryY=1;entryDx=0;entryDy=0;exitX=0;exitY=1;exitDx=0;exitDy=0;" edge="1" parent="1" source="HIxRMxd3DUjgqn-PF_iX-14" target="HIxRMxd3DUjgqn-PF_iX-15">
          <mxGeometry relative="1" as="geometry">
            <Array as="points">
              <mxPoint x="380" y="490" />
              <mxPoint x="340" y="490" />
              <mxPoint x="340" y="520" />
              <mxPoint x="260" y="520" />
            </Array>
          </mxGeometry>
        </mxCell>
        <mxCell id="HIxRMxd3DUjgqn-PF_iX-14" value="GameScreen" style="rounded=0;whiteSpace=wrap;html=1;" vertex="1" parent="1">
          <mxGeometry x="380" y="460" width="120" height="60" as="geometry" />
        </mxCell>
        <mxCell id="HIxRMxd3DUjgqn-PF_iX-21" style="edgeStyle=orthogonalEdgeStyle;rounded=0;orthogonalLoop=1;jettySize=auto;html=1;entryX=0;entryY=0.75;entryDx=0;entryDy=0;" edge="1" parent="1" source="HIxRMxd3DUjgqn-PF_iX-15" target="HIxRMxd3DUjgqn-PF_iX-1">
          <mxGeometry relative="1" as="geometry">
            <Array as="points">
              <mxPoint x="140" y="450" />
              <mxPoint x="140" y="85" />
            </Array>
          </mxGeometry>
        </mxCell>
        <mxCell id="HIxRMxd3DUjgqn-PF_iX-23" style="edgeStyle=orthogonalEdgeStyle;rounded=0;orthogonalLoop=1;jettySize=auto;html=1;entryX=0;entryY=0.5;entryDx=0;entryDy=0;" edge="1" parent="1" source="HIxRMxd3DUjgqn-PF_iX-15" target="HIxRMxd3DUjgqn-PF_iX-5">
          <mxGeometry relative="1" as="geometry" />
        </mxCell>
        <mxCell id="HIxRMxd3DUjgqn-PF_iX-15" value="Pause Screen" style="rounded=0;whiteSpace=wrap;html=1;" vertex="1" parent="1">
          <mxGeometry x="200" y="420" width="120" height="60" as="geometry" />
        </mxCell>
        <mxCell id="HIxRMxd3DUjgqn-PF_iX-29" style="edgeStyle=orthogonalEdgeStyle;rounded=0;orthogonalLoop=1;jettySize=auto;html=1;entryX=1;entryY=0.5;entryDx=0;entryDy=0;" edge="1" parent="1" source="HIxRMxd3DUjgqn-PF_iX-16" target="HIxRMxd3DUjgqn-PF_iX-5">
          <mxGeometry relative="1" as="geometry">
            <Array as="points">
              <mxPoint x="580" y="590" />
              <mxPoint x="580" y="280" />
            </Array>
          </mxGeometry>
        </mxCell>
        <mxCell id="HIxRMxd3DUjgqn-PF_iX-30" style="edgeStyle=orthogonalEdgeStyle;rounded=0;orthogonalLoop=1;jettySize=auto;html=1;entryX=0.5;entryY=1;entryDx=0;entryDy=0;" edge="1" parent="1" source="HIxRMxd3DUjgqn-PF_iX-16" target="HIxRMxd3DUjgqn-PF_iX-7">
          <mxGeometry relative="1" as="geometry">
            <Array as="points">
              <mxPoint x="440" y="680" />
              <mxPoint x="640" y="680" />
            </Array>
          </mxGeometry>
        </mxCell>
        <mxCell id="HIxRMxd3DUjgqn-PF_iX-16" value="Game Over Screen" style="rounded=0;whiteSpace=wrap;html=1;" vertex="1" parent="1">
          <mxGeometry x="380" y="560" width="120" height="60" as="geometry" />
        </mxCell>
        <mxCell id="HIxRMxd3DUjgqn-PF_iX-34" value="Quit" style="text;html=1;strokeColor=none;fillColor=none;align=center;verticalAlign=middle;whiteSpace=wrap;rounded=0;" vertex="1" parent="1">
          <mxGeometry x="150" y="420" width="40" height="20" as="geometry" />
        </mxCell>
        <mxCell id="HIxRMxd3DUjgqn-PF_iX-35" value="Restart" style="text;html=1;strokeColor=none;fillColor=none;align=center;verticalAlign=middle;whiteSpace=wrap;rounded=0;" vertex="1" parent="1">
          <mxGeometry x="300" y="390" width="40" height="20" as="geometry" />
        </mxCell>
        <mxCell id="HIxRMxd3DUjgqn-PF_iX-37" value="Pause" style="text;html=1;strokeColor=none;fillColor=none;align=center;verticalAlign=middle;whiteSpace=wrap;rounded=0;" vertex="1" parent="1">
          <mxGeometry x="340" y="470" width="40" height="20" as="geometry" />
        </mxCell>
        <mxCell id="HIxRMxd3DUjgqn-PF_iX-38" value="Restart" style="text;html=1;strokeColor=none;fillColor=none;align=center;verticalAlign=middle;whiteSpace=wrap;rounded=0;" vertex="1" parent="1">
          <mxGeometry x="520" y="560" width="40" height="20" as="geometry" />
        </mxCell>
        <mxCell id="HIxRMxd3DUjgqn-PF_iX-39" value="Exit" style="text;html=1;strokeColor=none;fillColor=none;align=center;verticalAlign=middle;whiteSpace=wrap;rounded=0;" vertex="1" parent="1">
          <mxGeometry x="450" y="660" width="40" height="20" as="geometry" />
        </mxCell>
      </root>
    </mxGraphModel>
  </diagram>
</mxfile>
